<?xml version="1.0" encoding="utf-8"?>
<!-- Generator: Adobe Illustrator 17.1.0, SVG Export Plug-In . SVG Version: 6.00 Build 0)  -->
<!DOCTYPE svg PUBLIC "-//W3C//DTD SVG 1.1//EN" "http://www.w3.org/Graphics/SVG/1.1/DTD/svg11.dtd">
<svg version="1.1" id="Layer_1" xmlns="http://www.w3.org/2000/svg" xmlns:xlink="http://www.w3.org/1999/xlink" x="0px" y="0px"
	 viewBox="0 0 203 32" enable-background="new 0 0 203 32" xml:space="preserve">
<path fill="#756227" d="M3.9,22.3v9h1.2v-3.4h1.7c2.3,0,3.5-1.1,3.5-2.8c0-1.7-1.2-2.8-3.5-2.8H3.9z M5.2,26.8v-3.4h1.7
	c1.5,0,2.2,0.7,2.2,1.7c0,1-0.7,1.7-2.2,1.7H5.2z"/>
<path fill="#756227" d="M23.4,31.3v-9h-1.2v3.8h-4.9v-3.8H16v9h1.2v-4h4.9v4H23.4z"/>
<path fill="#756227" d="M29.2,26.8c0,2.7,2,4.7,4.7,4.7s4.7-2,4.7-4.7c0-2.7-2-4.7-4.7-4.7S29.2,24.1,29.2,26.8z M30.5,26.8
	c0-2.1,1.5-3.5,3.4-3.5s3.4,1.4,3.4,3.5c0,2.1-1.5,3.5-3.4,3.5S30.5,28.9,30.5,26.8z"/>
<path fill="#756227" d="M50.7,23.5v-1.2h-7.5v1.2h3.1v7.8h1.2v-7.8H50.7z"/>
<path fill="#756227" d="M55.3,26.8c0,2.7,2,4.7,4.7,4.7s4.7-2,4.7-4.7c0-2.7-2-4.7-4.7-4.7S55.3,24.1,55.3,26.8z M56.6,26.8
	c0-2.1,1.5-3.5,3.4-3.5s3.4,1.4,3.4,3.5c0,2.1-1.5,3.5-3.4,3.5S56.6,28.9,56.6,26.8z"/>
<path fill="#756227" d="M79.2,31.3v-4.7h-3.9v1.1h2.7v1.1c-0.4,0.6-1.6,1.5-3.2,1.5c-2.1,0-3.6-1.4-3.6-3.5c0-2.1,1.5-3.5,3.5-3.5
	c1.6,0,2.6,0.9,3.1,1.8l1.2-0.3c-0.8-1.9-2.6-2.6-4.2-2.6c-2.7,0-4.7,2-4.7,4.7c0,2.7,2,4.7,4.7,4.7c1.8,0,2.9-1,3.3-1.5h0
	c0,0,0,0.3,0,1.3H79.2z"/>
<path fill="#756227" d="M90.8,31.3h1.4l-2.3-3.8c1.2-0.3,2-1.1,2-2.5c0-1.7-1.3-2.7-3.5-2.7h-2.9v9h1.2v-3.5h1c0.2,0,0.6,0,1,0
	L90.8,31.3z M86.6,26.7v-3.3h1.7c1.4,0,2.2,0.5,2.2,1.6c0,1.1-0.8,1.6-2.2,1.6H86.6z"/>
<path fill="#756227" d="M103.7,28.9l0.9,2.4h1.3l-3.7-9h-1.5l-3.7,9h1.3l0.9-2.4H103.7z M103.2,27.8h-3.5l0.8-1.9
	c0.6-1.6,1-2.5,1-2.5h0c0,0,0.3,0.8,0.9,2.4L103.2,27.8z"/>
<path fill="#756227" d="M111.5,22.3v9h1.2v-3.4h1.7c2.3,0,3.5-1.1,3.5-2.8c0-1.7-1.2-2.8-3.5-2.8H111.5z M112.8,26.8v-3.4h1.7
	c1.5,0,2.2,0.7,2.2,1.7c0,1-0.7,1.7-2.2,1.7H112.8z"/>
<path fill="#756227" d="M131,31.3v-9h-1.2v3.8h-4.9v-3.8h-1.2v9h1.2v-4h4.9v4H131z"/>
<path fill="#756227" d="M141.2,31.3v-3.7l3.4-5.3h-1.3l-1.4,2.2c-0.7,1.1-1.2,1.9-1.2,1.9h0c0,0-0.5-0.8-1.2-1.9l-1.4-2.2h-1.4
	l3.4,5.3v3.7H141.2z"/>
<g>
	<path fill="#C9C4B9" d="M13.5,13.4V6.1h-6v2.8h3.2v0.6c-0.4,0.5-1.5,1.3-3.2,1.3c-2.2,0-3.7-1.5-3.7-3.7c0-2.2,1.3-3.7,3.3-3.7
		c1.6,0,2.5,0.8,3,1.6l3-0.8c-0.8-2.1-3-3.6-5.9-3.6c-3.8,0-6.5,2.7-6.5,6.5c0,3.9,3,6.6,6.5,6.6c1.5,0,2.8-0.5,3.5-1.1h0
		c0,0.1,0,0.2,0,0.9H13.5z"/>
	<path fill="#C9C4B9" d="M24.5,13.4h3.6l-2.9-4.8c1.5-0.6,2.4-1.9,2.4-3.6c0-2.6-1.9-4.3-5-4.3h-4.8v12.6h3V9.3h0.7h0.6L24.5,13.4z
		 M20.8,6.9V3.6h1.9c1.2,0,1.7,0.6,1.7,1.7c0,1.1-0.6,1.6-1.7,1.6H20.8z"/>
	<path fill="#C9C4B9" d="M31.7,13.4h9.3v-2.8h-6.2V8.3h4.5V5.8h-4.5V3.6h6.2V0.8h-9.2V13.4z"/>
	<path fill="#C9C4B9" d="M55,3.6V0.8H44.3v2.8h3.9v9.8h3V3.6H55z"/>
	<path fill="#C9C4B9" d="M67.5,8.9c-0.5,1-1.5,1.9-3.2,1.9c-1.9,0-3.3-1.5-3.3-3.7c0-2.2,1.3-3.7,3.3-3.7c1.4,0,2.4,0.6,3,1.6l3-0.8
		c-0.8-2-3-3.6-5.9-3.6c-3.8,0-6.5,2.7-6.5,6.5c0,3.9,2.8,6.6,6.5,6.6c2.7,0,5.1-1.5,6-4L67.5,8.9z"/>
	<path fill="#C9C4B9" d="M82,13.4h3V0.8h-3v4.8h-4.8V0.8h-3v12.6h3v-5H82V13.4z"/>
	<path fill="#C9C4B9" d="M89.4,13.4h9.3v-2.8h-6.2V8.3H97V5.8h-4.5V3.6h6.2V0.8h-9.2V13.4z"/>
	<path fill="#C9C4B9" d="M111.2,13.4h3.1V0.8h-3v4.4c0,1.4,0,3,0,3h-0.1l-5.4-7.4h-3.1v12.6h3V9.1c0-1.6,0-3.2,0-3.2h0.1L111.2,13.4
		z"/>
	<path fill="#C9C4B9" d="M133.3,13.4h3.5l-4.7-7.5l4.5-5.1H133l-3.2,3.8l-1.4,1.6h-0.1V4.3V0.8h-3v12.6h3V9.8l1.5-1.7L133.3,13.4z"
		/>
	<path fill="#C9C4B9" d="M140.1,13.4h9.3v-2.8h-6.2V8.3h4.5V5.8h-4.5V3.6h6.2V0.8h-9.2V13.4z"/>
	<path fill="#C9C4B9" d="M153.5,13.4h8.7v-2.8h-5.7V0.8h-3V13.4z"/>
	<path fill="#C9C4B9" d="M165.7,13.4h8.7v-2.8h-5.7V0.8h-3V13.4z"/>
	<path fill="#C9C4B9" d="M177.9,13.4h9.3v-2.8h-6.2V8.3h4.5V5.8h-4.5V3.6h6.2V0.8h-9.2V13.4z"/>
	<path fill="#C9C4B9" d="M198,8.5l4.7-7.6h-3.2l-2,3.4c-0.5,0.8-0.8,1.5-0.8,1.5h-0.1c0,0-0.4-0.7-0.8-1.5l-1.9-3.4l-3.5,0l4.7,7.6
		v5h3V8.5z"/>
</g>
</svg>
